<svg version="1.1" xmlns="http://www.w3.org/2000/svg" xmlns:xlink="http://www.w3.org/1999/xlink" width="105.53px" height="122.88px" viewBox="0,0,219.84375,256"><g fill="#ffbc5e" fill-rule="evenodd" stroke="none" stroke-width="1" stroke-linecap="butt" stroke-linejoin="miter" stroke-miterlimit="10" stroke-dasharray="" stroke-dashoffset="0" font-family="none" font-weight="none" font-size="none" text-anchor="none" style="mix-blend-mode: normal"><g transform="translate(-0.03639,-0.04132) scale(2.08333,2.08333)"><path d="M98.66,87l2.84,2.85c0.36341,0.35721 0.56809,0.84543 0.56809,1.355c0,0.50957 -0.20469,0.99779 -0.56809,1.355l-2.28,2.29c0.63737,1.19565 1.11479,2.4699 1.42,3.79h3c1.06039,0 1.92,0.85961 1.92,1.92v4c0.00001,1.06202 -0.858,1.9245 -1.92,1.93h-3.23c-0.39342,1.29124 -0.9549,2.52514 -1.67,3.67l2.09,2.09c0.74745,0.75262 0.74745,1.96738 0,2.72l-2.83,2.89c-0.75262,0.74745 -1.96738,0.74745 -2.72,0l-2.28,-2.28c-1.21337,0.63704 -2.50409,1.11434 -3.84,1.42v3c-0.00547,1.05811 -0.86189,1.91453 -1.92,1.92h-4c-1.06202,0.00001 -1.9245,-0.858 -1.93,-1.92v-3.23c-1.29553,-0.39487 -2.53299,-0.9598 -3.68,-1.68l-2.09,2.1c-0.75262,0.74745 -1.96738,0.74745 -2.72,0l-2.82,-2.89c-0.36091,-0.35855 -0.56387,-0.84626 -0.56387,-1.355c0,-0.50874 0.20296,-0.99645 0.56387,-1.355l2.28,-2.29c-0.63305,-1.1976 -1.11025,-2.47127 -1.42,-3.79h-3c-1.03461,-0.03754 -1.85532,-0.88472 -1.86,-1.92v-4c0.00541,-1.05977 0.86027,-1.91909 1.92,-1.93h3.18c0.3977,-1.28815 0.96251,-2.51863 1.68,-3.66l-2.1,-2.09c-0.74745,-0.75262 -0.74745,-1.96738 0,-2.72l2.85,-2.84c0.35855,-0.36091 0.84626,-0.56387 1.355,-0.56387c0.50874,0 0.99645,0.20296 1.355,0.56387l2.29,2.28c1.19737,-0.63355 2.47111,-1.11078 3.79,-1.42v-3c0.00547,-1.05811 0.86189,-1.91453 1.92,-1.92h4c1.05811,0.00547 1.91453,0.86189 1.92,1.92v3.23c1.29343,0.3921 2.52794,0.95722 3.67,1.68l2.11,-2.12c0.75484,-0.74203 1.96516,-0.74203 2.72,0zM60.26,117c1.44883,0.23899 2.51174,1.49159 2.51174,2.96c0,1.46841 -1.06291,2.72101 -2.51174,2.96h-53.37c-1.83255,0.00002 -3.58961,-0.73001 -4.8826,-2.02863c-1.29299,-1.29862 -2.01538,-3.05884 -2.0074,-4.89137v-109.15c-0.00667,-1.81867 0.71333,-3.56467 2,-4.85c1.29074,-1.29697 3.0503,-2.01811 4.88,-2h84.64c3.80296,0.00551 6.88449,3.08704 6.89,6.89v61.34c0,0.06 0,0.12 0,0.18c-0.21066,1.47842 -1.47664,2.5768 -2.97,2.5768c-1.49336,0 -2.75934,-1.09837 -2.97,-2.5768v-61.52v0c-0.00358,-0.254 -0.10368,-0.49712 -0.28,-0.68c-0.1813,-0.17998 -0.42461,-0.28374 -0.68,-0.29h-84.62c-0.2703,-0.01788 -0.53518,0.08172 -0.72673,0.27327c-0.19155,0.19155 -0.29115,0.45643 -0.27327,0.72673v109.08v0c0.00608,0.25053 0.10601,0.48964 0.28,0.67c0.18379,0.18234 0.43113,0.2863 0.69,0.29h53.4zM19,102.66v-6.66h28.83v6.63h-28.82zM74.3,59.76v6.11h-8.68v-6.11zM58.77,54.38v11.49h-8.69v-11.49zM43.24,37.92v28h-8.69v-28zM27.7,26.41v39.46h-8.7v-39.46zM69,29.31l13.11,0.05c-0.01662,3.4933 -1.42359,6.83619 -3.91,9.29c-0.58792,0.57698 -1.22724,1.09914 -1.91,1.56zM67.66,26.71l-0.66,-14.01c-0.01138,-0.27803 0.2022,-0.51386 0.48,-0.53h0.52c7.69481,-0.08909 14.13028,5.82506 14.69,13.5c0.0119,0.27636 -0.19464,0.51366 -0.47,0.54l-14,1c-0.13167,0.01101 -0.26221,-0.03163 -0.362,-0.11824c-0.09979,-0.08661 -0.16037,-0.20985 -0.168,-0.34176zM68.49,13.16l0.65,12.51l11.76,-1.06c-0.25494,-3.04205 -1.69074,-5.8634 -4,-7.86c-2.46,-2.27 -4.74,-3.62 -8.32,-3.58zM66.1,28.7l7,12.17c-4.90212,2.83324 -11.02587,2.44714 -15.53332,-0.97936c-4.50745,-3.4265 -6.5177,-9.22377 -5.09915,-14.70517c1.41856,-5.4814 5.98869,-9.57569 11.59247,-10.38547l2,13.9zM19,84.83v-6.68h40.86v6.63zM85.73,94.21c4.35753,0 7.89,3.53247 7.89,7.89c0,4.35753 -3.53247,7.89 -7.89,7.89c-4.35753,0 -7.89,-3.53247 -7.89,-7.89c0,-4.35753 3.53247,-7.89 7.89,-7.89z"></path></g></g></svg>