<svg version="1.1" xmlns="http://www.w3.org/2000/svg" xmlns:xlink="http://www.w3.org/1999/xlink" width="512px" height="406.52px" viewBox="0,0,256,203.25"><g fill="#ffbc5e" fill-rule="evenodd" stroke="none" stroke-width="1" stroke-linecap="butt" stroke-linejoin="miter" stroke-miterlimit="10" stroke-dasharray="" stroke-dashoffset="0" font-family="none" font-weight="none" font-size="none" text-anchor="none" style="mix-blend-mode: normal"><g transform="translate(0,-0.005) scale(0.5,0.5)"><path d="M512,0v339.71h-175.23v34.2h51.21v32.61h-265.05v-32.61h54.85v-34.2h-177.78v-339.71zM60.73,251.43h342.85v15.07h-342.85zM60.73,211.2h218.77v15.07h-218.77zM395.32,127.05l58.05,0.2c-0.05,15.9 -6.28,31.12 -17.31,42.28c-2.60246,2.62618 -5.44483,5.0032 -8.49,7.1zM389.37,115.22l-3.1,-63.73c-0.06,-1.26 0.89,-2.33 2.11,-2.39c0.36,-0.02 0.78,-0.04 1.25,-0.05c0.39,-0.02 0.81,-0.02 1.25,-0.03c17.05,-0.19 32.69,6.45 44.38,17.5c11.69,11.05 19.42,26.52 20.64,43.99c0.08,1.26 -0.84,2.35 -2.07,2.44l-62.08,4.56c-1.22,0.08 -2.29,-0.86 -2.37,-2.12c-0.01,-0.06 -0.01,-0.11 -0.01,-0.17zM390.82,53.58l2.88,59.2l57.56,-4.22c-1.62,-15.33 -8.64,-28.88 -19.01,-38.68c-10.89,-10.3 -25.46,-16.48 -41.33,-16.3zM382.42,124.32l31.12,55.36c-9.46,5.61 -20.2,8.57 -31.12,8.57c-34.38,0 -62.25,-28.63 -62.25,-63.93c0,-31.73 22.65,-58.65 53.21,-63.26zM204.76,55.94l-4.96,-6.31c-0.78,-1.09 -1.02,-2.12 -0.7,-3.07c0.84,-2.56 3.86,-2.31 5.95,-2.17c5.94,0.43 19.95,0.56 23.01,0.68c2.24,0.16 3.55,1.84 3.17,4.05c-0.62,3.09 -3.47,17.97 -4.49,23.62c-0.36,1.96 -0.95,4.51 -3.42,4.7c-1,0.08 -1.94,-0.4 -2.82,-1.41l-4.95,-6.32l-2.3,-2.92l-30.93,20.03c-0.39,7.79 -6.83,13.99 -14.72,13.99c-8.14,0 -14.74,-6.6 -14.74,-14.74c0,-0.33 0.01,-0.66 0.03,-0.98l-17.1,-12.35c-2.4639,1.72645 -5.40146,2.64858 -8.41,2.64c-4.26,0 -8.09,-1.81 -10.78,-4.7l-28.67,15.37c0.06,0.5 0.08,1.01 0.08,1.53c0,8.14 -6.6,14.74 -14.73,14.74c-8.14,0 -14.74,-6.6 -14.74,-14.74c0,-8.14 6.6,-14.74 14.74,-14.74c2.95,0 5.69,0.87 8,2.36l31.55,-16.91c1.12,-7.02 7.21,-12.39 14.55,-12.39c8.14,0 14.74,6.6 14.74,14.74c0,0.32 -0.01,0.65 -0.03,0.98l17.1,12.35c2.46671,-1.72073 5.40242,-2.64228 8.41,-2.64c3.7,0 7.08,1.37 9.67,3.62l28.11,-18.21zM211.54,93.97h20.32c1.17,0 2.13,0.96 2.13,2.13v78.95c0,1.17 -0.96,2.13 -2.13,2.13h-20.32c-1.16,0 -2.13,-0.96 -2.13,-2.13v-78.95c0,-1.17 0.96,-2.13 2.13,-2.13zM162.07,121.03h20.32c1.17,0 2.13,0.96 2.13,2.13v51.89c0,1.17 -0.96,2.13 -2.13,2.13h-20.32c-1.17,0 -2.13,-0.96 -2.13,-2.13v-51.89c0,-1.17 0.96,-2.13 2.13,-2.13zM112.59,93.97h20.33c1.17,0 2.12,0.96 2.12,2.13v78.95c0,1.17 -0.96,2.13 -2.12,2.13h-20.33c-1.16,0 -2.12,-0.96 -2.12,-2.13v-78.95c0,-1.17 0.95,-2.13 2.12,-2.13zM63.11,125.39h20.33c1.17,0 2.12,0.97 2.12,2.13v47.53c0,1.17 -0.96,2.13 -2.12,2.13h-20.33c-1.16,0 -2.12,-0.96 -2.12,-2.13v-47.53c0,-1.17 0.95,-2.13 2.12,-2.13zM15.28,296.18h481.37v-280.9h-481.37z"></path></g></g></svg>