<svg version="1.1" xmlns="http://www.w3.org/2000/svg" xmlns:xlink="http://www.w3.org/1999/xlink" width="512px" height="486.46px" viewBox="0,0,256,243.21875"><g fill="#ffbc5e" fill-rule="evenodd" stroke="none" stroke-width="1" stroke-linecap="butt" stroke-linejoin="miter" stroke-miterlimit="10" stroke-dasharray="" stroke-dashoffset="0" font-family="none" font-weight="none" font-size="none" text-anchor="none" style="mix-blend-mode: normal"><g transform="translate(0,-0.00688) scale(0.5,0.5)"><path d="M70.61,106.63c70.08,23.44 184.92,23.44 255,0c28.41,-9.5 45.98,-20.99 45.98,-32.21c0,-11.22 -17.57,-22.71 -45.98,-32.21c-70.61,-23.45 -184.38,-23.42 -255,0c-60.22,20.13 -61.9,43.74 0,64.42zM373.99,382.54c4.1,0.54 6.99,4.42 6.45,8.65c-0.53,4.22 -4.3,7.2 -8.39,6.65l-8.5,-1.14c4.38,7.26 10.16,12.55 16.58,15.91c6.64318,3.48959 14.14027,5.0223 21.62,4.42c7.33,-0.58 14.53,-3.2 20.66,-7.79c8.06,-6.03 14.37,-15.53 16.93,-28.37c0.82,-4.18 4.78,-6.87 8.82,-6.02c4.05,0.85 6.66,4.93 5.84,9.1c-3.38,16.97 -11.87,29.65 -22.78,37.81c-8.24653,6.17852 -18.07762,9.88902 -28.35,10.7c-10.04,0.8 -20.3,-1.19 -29.55,-6.05c-8.25,-4.33 -15.7,-10.92 -21.44,-19.82l-1.42,6.54c-0.89,4.16 -4.88,6.79 -8.92,5.87c-4.03,-0.91 -6.58,-5.03 -5.69,-9.19l5.26,-24.27c0.7,-4.04 4.37,-6.84 8.35,-6.31zM447.41,324.79c0.89,-4.16 4.89,-6.78 8.92,-5.87c4.03,0.92 6.58,5.04 5.69,9.2l-5.38,24.82c-0.85,3.96 -4.54,6.54 -8.37,5.97l-24.18,-3.23c-4.09,-0.53 -7,-4.4 -6.48,-8.62c0.51,-4.23 4.26,-7.21 8.36,-6.68l8.21,1.09c-4.15,-7.06 -9.68,-12.27 -15.85,-15.69l-0.37,-0.19c-6.59,-3.57 -13.97,-5.13 -21.24,-4.73c-7.23,0.39 -14.38,2.77 -20.56,7.06c-8.58,5.96 -15.35,15.71 -18.03,29.16c-0.83,4.17 -4.78,6.87 -8.83,6.02c-4.05,-0.86 -6.66,-4.93 -5.84,-9.11c3.56,-17.8 12.69,-30.83 24.31,-38.9c8.31207,-5.77825 18.07105,-9.12359 28.18,-9.66c9.89,-0.55 19.95,1.6 28.99,6.49l0.42,0.25c7.95,4.39 15.08,10.89 20.56,19.52zM441.62,188.14c-1.04,-0.94 -2.5,-1.57 -3.96,-1.57c-0.31,0 -0.63,0 -0.94,0.11h-137.71c-7.22,0 -13.13,5.91 -13.13,13.14v273.43c0,7.24 5.89,13.13 13.13,13.13h199.85c7.24,0 13.14,-5.89 13.14,-13.13v-210.04c0,-2.66 -0.3,-4.46 -1.78,-5.94l-67.87,-68.72c-0.21,-0.2 -0.31,-0.3 -0.52,-0.41zM423.16,203.87v47.34c0,13.72 13.24,24.7 25.03,24.7h46.75v191.93c0.01,0.61 -0.55,1.45 -1.36,1.35h-189.26c-0.73,0 -1.35,-0.66 -1.35,-1.35v-262.62c0,-0.74 0.62,-1.35 1.35,-1.35zM441.08,252.28v-43.06l48.48,49.1h-42.43c-3.29,0 -6.05,-2.74 -6.05,-6.04zM24.91,196.09c2.24,10.47 19.3,21.02 45.74,29.85c52.85,17.68 121.85,20.52 177.75,15.14v24.79c-58.75,5.47 -129.88,2.02 -185.47,-16.55c-13.39259,-4.22469 -26.15174,-10.24265 -37.93,-17.89l-0.01,73.87c2.23,10.47 19.3,21.03 45.74,29.86c53.11,17.7 121.55,20.44 177.67,15.18v24.67c-58.94,5.33 -129.72,2.07 -185.51,-16.63c-13.39,-4.19 -26.18,-10.23 -37.93,-17.85v73.87c2.23,10.47 19.3,21.02 45.74,29.85c52.91,17.64 121.77,20.53 177.71,15.14v19.18c0,1.85 0,3.69 0.27,5.54c-58.85,5.44 -130.07,2.07 -185.75,-16.6c-18.4,-6.12 -62.77,-26.28 -62.77,-50.41v-7.84c-0.11,-110.03 -0.16,-224.8 -0.16,-334.64c0,-23.23 24.01,-42.73 62.77,-55.71c75.59,-25.2 195.11,-25.24 270.69,0.04c34.95,11.69 58.41,29.03 62.3,49.39c0.46,1.3 0.7,2.67 0.7,4.05v74.16h-24.75v-34.74c-11.86,7.72 -24.78,13.84 -38.26,18.08c-75.23,25.39 -195.39,25.15 -270.68,0c-13.3931,-4.20997 -26.15287,-10.21813 -37.93,-17.86l-0.01,84.06z"></path></g></g></svg>