<svg version="1.1" xmlns="http://www.w3.org/2000/svg" xmlns:xlink="http://www.w3.org/1999/xlink" width="110.66px" height="122.88px" viewBox="0,0,230.53125,256"><g fill="#ffbc5e" fill-rule="evenodd" stroke="none" stroke-width="1" stroke-linecap="butt" stroke-linejoin="miter" stroke-miterlimit="10" stroke-dasharray="" stroke-dashoffset="0" font-family="none" font-weight="none" font-size="none" text-anchor="none" style="mix-blend-mode: normal"><g transform="translate(0.00521,0) scale(2.08333,2.08333)"><g><path d="M81.81,70.82c6.27,0 11.95,2.55 16.07,6.65c4.12,4.12 6.65,9.78 6.65,16.07c0,4.58 -1.37,8.86 -3.7,12.43l9.83,10.71l-6.78,6.2l-9.48,-10.43c-3.6,2.4 -7.93,3.8 -12.58,3.8c-6.27,0 -11.95,-2.55 -16.06,-6.65c-4.12,-4.12 -6.65,-9.78 -6.65,-16.06c0,-6.27 2.55,-11.95 6.65,-16.07c4.1,-4.12 9.77,-6.65 16.05,-6.65v0zM5.78,40.86v0v47.09c0,0.27 0.1,0.52 0.27,0.69c0.17,0.17 0.41,0.28 0.69,0.28h42.53c2.93,0.3 3.02,5.37 0,5.81h-27.22v10.8c0,0.28 0.1,0.52 0.28,0.69c0.17,0.17 0.41,0.27 0.69,0.27h26.26c2.12,0.24 2.81,5.06 0,5.81h-26.23c-1.86,0 -3.58,-0.76 -4.78,-2c-1.24,-1.24 -2,-2.92 -2,-4.78v-10.8h-9.5c-1.86,0 -3.58,-0.76 -4.78,-2c-1.24,-1.24 -2,-2.92 -2,-4.78v-81.16c0.01,-1.86 0.77,-3.58 2.01,-4.78c1.24,-1.24 2.92,-2 4.78,-2h71.32c1.86,0 3.58,0.76 4.78,1.99c1.24,1.24 1.99,2.93 1.99,4.78v10.8v0v0h9.5c1.86,0 3.58,0.76 4.78,1.99c1.24,1.24 2,2.93 2,4.78v37.03c-0.2,2.12 -5.41,2.15 -5.85,0v-37.01c0,-0.28 -0.1,-0.52 -0.27,-0.69c-0.17,-0.17 -0.41,-0.28 -0.69,-0.28h-9.5v37.99c-0.51,1.92 -4.84,2.21 -5.81,0v-20.52v0h-73.25zM5.78,35.51v0h73.25v0v-28.73c0,-0.28 -0.1,-0.52 -0.28,-0.69c-0.17,-0.17 -0.41,-0.28 -0.69,-0.28h-71.32c-0.28,0 -0.52,0.1 -0.69,0.28c-0.17,0.17 -0.27,0.41 -0.27,0.69v28.73zM38.96,21.54h4.72c0.25,0 0.42,0.17 0.42,0.42v10.46c0,0.25 -0.17,0.42 -0.42,0.42h-4.72c-0.25,0 -0.42,-0.17 -0.42,-0.42v-10.46c0,-0.16 0.17,-0.42 0.42,-0.42v0v0zM62.22,21.54h4.72c0.25,0 0.42,0.17 0.42,0.42v10.46c0,0.25 -0.17,0.42 -0.42,0.42h-4.72c-0.25,0 -0.42,-0.17 -0.42,-0.42v-10.46c0,-0.16 0.17,-0.42 0.42,-0.42v0v0zM50.59,12.69h4.72c0.26,0 0.42,0.17 0.42,0.42v19.39c0,0.25 -0.17,0.42 -0.42,0.42h-4.72c-0.25,0 -0.42,-0.17 -0.42,-0.42v-19.39c0,-0.25 0.17,-0.42 0.42,-0.42v0v0zM15.71,15.89h4.72c0.25,0 0.42,0.17 0.42,0.42v16.19c0,0.25 -0.17,0.42 -0.42,0.42h-4.72c-0.25,0 -0.42,-0.17 -0.42,-0.42v-16.18c-0.08,-0.26 0.17,-0.43 0.42,-0.43v0v0v0zM27.33,12.69h4.72c0.25,0 0.42,0.17 0.42,0.42v19.39c0,0.25 -0.17,0.42 -0.42,0.42h-4.72c-0.25,0 -0.42,-0.17 -0.42,-0.42v-19.39c0,-0.25 0.17,-0.42 0.42,-0.42v0v0zM42.69,67.18l13.15,0.23c0,4.72 -2.32,9.05 -6.19,11.68l-6.96,-11.91v0v0zM41.97,63.16l-0.15,-15.32v-1.01l1.01,0.08v0v0c1.24,0.08 2.48,0.31 3.64,0.62c1.16,0.31 2.24,0.77 3.33,1.31c5.34,2.79 9.05,8.36 9.36,14.7l0.08,1.01h-1.01l-15.24,-0.46h-0.85l-0.17,-0.93v0v0zM43.67,48.76l0.15,13.47l13.39,0.39c-0.54,-5.26 -3.79,-9.83 -8.28,-12.22c-0.93,-0.47 -1.93,-0.86 -2.94,-1.17c-0.85,-0.16 -1.55,-0.31 -2.32,-0.47v0v0zM38.28,65.81l7.51,13c-2.32,1.32 -4.87,2.01 -7.51,2.01c-8.28,0 -15.01,-6.73 -15.01,-15.02c0,-8.05 6.35,-14.7 14.39,-15.01l0.62,15.02v0v0zM93.89,81.45c-3.09,-3.09 -7.36,-5.01 -12.08,-5.01c-4.71,0 -8.99,1.92 -12.08,5.01c-3.09,3.09 -5.01,7.36 -5.01,12.08c0,4.71 1.92,8.99 5.01,12.08c3.09,3.09 7.36,5.01 12.08,5.01c4.71,0 8.99,-1.92 12.08,-5.01c3.09,-3.09 5.01,-7.37 5.01,-12.08c0,-4.71 -1.92,-8.99 -5.01,-12.08v0v0z"></path></g></g></g></svg>